<mxfile host="Electron" modified="2024-05-09T21:14:36.184Z" agent="Mozilla/5.0 (Windows NT 10.0; Win64; x64) AppleWebKit/537.36 (KHTML, like Gecko) draw.io/24.2.5 Chrome/120.0.6099.109 Electron/28.1.0 Safari/537.36" etag="Y8zz403VEz9Mp-ZuQq_b" version="24.2.5" type="device">
  <diagram id="5_LrSvfUDZXO3y8Wor-d" name="Page-1">
    <mxGraphModel dx="1185" dy="683" grid="1" gridSize="10" guides="1" tooltips="1" connect="1" arrows="1" fold="1" page="1" pageScale="1" pageWidth="850" pageHeight="1100" math="0" shadow="0">
      <root>
        <mxCell id="0" />
        <mxCell id="1" parent="0" />
        <mxCell id="UZ9Ux37qHeOWCQ1a2PDl-4" value="Valid Example" style="rounded=1;whiteSpace=wrap;html=1;strokeColor=#00FF00;" parent="1" vertex="1">
          <mxGeometry x="90" y="90" width="430" height="20" as="geometry" />
        </mxCell>
        <mxCell id="UZ9Ux37qHeOWCQ1a2PDl-5" value="&quot;Hello,_World&quot;" style="rounded=1;whiteSpace=wrap;html=1;strokeColor=#00FF00;" parent="1" vertex="1">
          <mxGeometry x="90" y="120" width="430" height="40" as="geometry" />
        </mxCell>
        <mxCell id="UZ9Ux37qHeOWCQ1a2PDl-14" style="edgeStyle=orthogonalEdgeStyle;rounded=0;orthogonalLoop=1;jettySize=auto;html=1;entryX=0;entryY=0.5;entryDx=0;entryDy=0;curved=1;strokeColor=#00FF00;strokeWidth=2;" parent="1" source="UZ9Ux37qHeOWCQ1a2PDl-6" target="UZ9Ux37qHeOWCQ1a2PDl-9" edge="1">
          <mxGeometry relative="1" as="geometry" />
        </mxCell>
        <mxCell id="UZ9Ux37qHeOWCQ1a2PDl-15" style="edgeStyle=orthogonalEdgeStyle;rounded=0;orthogonalLoop=1;jettySize=auto;html=1;strokeColor=#00FF00;strokeWidth=2;" parent="1" source="UZ9Ux37qHeOWCQ1a2PDl-6" target="UZ9Ux37qHeOWCQ1a2PDl-8" edge="1">
          <mxGeometry relative="1" as="geometry" />
        </mxCell>
        <mxCell id="UZ9Ux37qHeOWCQ1a2PDl-16" style="edgeStyle=orthogonalEdgeStyle;rounded=0;orthogonalLoop=1;jettySize=auto;html=1;entryX=0;entryY=0.5;entryDx=0;entryDy=0;curved=1;strokeColor=#00FF00;strokeWidth=2;" parent="1" source="UZ9Ux37qHeOWCQ1a2PDl-6" target="UZ9Ux37qHeOWCQ1a2PDl-7" edge="1">
          <mxGeometry relative="1" as="geometry" />
        </mxCell>
        <mxCell id="UZ9Ux37qHeOWCQ1a2PDl-6" value="Hello" style="ellipse;whiteSpace=wrap;html=1;aspect=fixed;strokeColor=#00FF00;strokeWidth=2;" parent="1" vertex="1">
          <mxGeometry x="120" y="360" width="40" height="40" as="geometry" />
        </mxCell>
        <mxCell id="UZ9Ux37qHeOWCQ1a2PDl-7" value="World" style="ellipse;whiteSpace=wrap;html=1;aspect=fixed;strokeColor=#ff0000;strokeWidth=2;" parent="1" vertex="1">
          <mxGeometry x="240" y="440" width="40" height="40" as="geometry" />
        </mxCell>
        <mxCell id="UZ9Ux37qHeOWCQ1a2PDl-19" style="edgeStyle=orthogonalEdgeStyle;rounded=0;orthogonalLoop=1;jettySize=auto;html=1;strokeColor=#FF0000;strokeWidth=2;" parent="1" source="UZ9Ux37qHeOWCQ1a2PDl-8" target="UZ9Ux37qHeOWCQ1a2PDl-11" edge="1">
          <mxGeometry relative="1" as="geometry" />
        </mxCell>
        <mxCell id="UZ9Ux37qHeOWCQ1a2PDl-8" value="_" style="ellipse;whiteSpace=wrap;html=1;aspect=fixed;strokeColor=#ff0000;strokeWidth=2;" parent="1" vertex="1">
          <mxGeometry x="240" y="360" width="40" height="40" as="geometry" />
        </mxCell>
        <mxCell id="UZ9Ux37qHeOWCQ1a2PDl-17" style="edgeStyle=orthogonalEdgeStyle;rounded=0;orthogonalLoop=1;jettySize=auto;html=1;entryX=0;entryY=0.5;entryDx=0;entryDy=0;curved=1;strokeColor=#00FF00;strokeWidth=2;" parent="1" source="UZ9Ux37qHeOWCQ1a2PDl-9" target="UZ9Ux37qHeOWCQ1a2PDl-13" edge="1">
          <mxGeometry relative="1" as="geometry" />
        </mxCell>
        <mxCell id="UZ9Ux37qHeOWCQ1a2PDl-18" style="edgeStyle=orthogonalEdgeStyle;rounded=0;orthogonalLoop=1;jettySize=auto;html=1;entryX=0;entryY=0.5;entryDx=0;entryDy=0;strokeColor=#00FF00;strokeWidth=2;" parent="1" source="UZ9Ux37qHeOWCQ1a2PDl-9" target="UZ9Ux37qHeOWCQ1a2PDl-10" edge="1">
          <mxGeometry relative="1" as="geometry" />
        </mxCell>
        <mxCell id="UZ9Ux37qHeOWCQ1a2PDl-9" value="," style="ellipse;whiteSpace=wrap;html=1;aspect=fixed;strokeColor=#00FF00;strokeWidth=2;" parent="1" vertex="1">
          <mxGeometry x="240" y="280" width="40" height="40" as="geometry" />
        </mxCell>
        <mxCell id="UZ9Ux37qHeOWCQ1a2PDl-25" style="edgeStyle=orthogonalEdgeStyle;rounded=0;orthogonalLoop=1;jettySize=auto;html=1;strokeColor=#00FF00;strokeWidth=2;" parent="1" source="UZ9Ux37qHeOWCQ1a2PDl-10" target="UZ9Ux37qHeOWCQ1a2PDl-24" edge="1">
          <mxGeometry relative="1" as="geometry" />
        </mxCell>
        <mxCell id="UZ9Ux37qHeOWCQ1a2PDl-10" value="_" style="ellipse;whiteSpace=wrap;html=1;aspect=fixed;strokeColor=#00FF00;strokeWidth=2;" parent="1" vertex="1">
          <mxGeometry x="360" y="280" width="40" height="40" as="geometry" />
        </mxCell>
        <mxCell id="UZ9Ux37qHeOWCQ1a2PDl-11" value="World" style="ellipse;whiteSpace=wrap;html=1;aspect=fixed;strokeColor=#ff0000;strokeWidth=2;" parent="1" vertex="1">
          <mxGeometry x="360" y="360" width="40" height="40" as="geometry" />
        </mxCell>
        <mxCell id="UZ9Ux37qHeOWCQ1a2PDl-13" value="World" style="ellipse;whiteSpace=wrap;html=1;aspect=fixed;strokeColor=#ff0000;strokeWidth=2;" parent="1" vertex="1">
          <mxGeometry x="360" y="200" width="40" height="40" as="geometry" />
        </mxCell>
        <mxCell id="UZ9Ux37qHeOWCQ1a2PDl-22" value="Invalid Example" style="rounded=1;whiteSpace=wrap;html=1;strokeColor=#FF0000;" parent="1" vertex="1">
          <mxGeometry x="80" y="500" width="430" height="20" as="geometry" />
        </mxCell>
        <mxCell id="UZ9Ux37qHeOWCQ1a2PDl-23" value="&quot;Hello,^World&quot;" style="rounded=1;whiteSpace=wrap;html=1;strokeColor=#FF0000;" parent="1" vertex="1">
          <mxGeometry x="80" y="530" width="430" height="40" as="geometry" />
        </mxCell>
        <mxCell id="UZ9Ux37qHeOWCQ1a2PDl-24" value="World" style="ellipse;whiteSpace=wrap;html=1;aspect=fixed;strokeColor=#00FF00;strokeWidth=2;" parent="1" vertex="1">
          <mxGeometry x="480" y="280" width="40" height="40" as="geometry" />
        </mxCell>
        <mxCell id="UZ9Ux37qHeOWCQ1a2PDl-26" style="edgeStyle=orthogonalEdgeStyle;rounded=0;orthogonalLoop=1;jettySize=auto;html=1;entryX=0;entryY=0.5;entryDx=0;entryDy=0;curved=1;strokeColor=#00FF00;strokeWidth=2;" parent="1" source="UZ9Ux37qHeOWCQ1a2PDl-29" target="UZ9Ux37qHeOWCQ1a2PDl-35" edge="1">
          <mxGeometry relative="1" as="geometry" />
        </mxCell>
        <mxCell id="UZ9Ux37qHeOWCQ1a2PDl-27" style="edgeStyle=orthogonalEdgeStyle;rounded=0;orthogonalLoop=1;jettySize=auto;html=1;strokeColor=#00FF00;strokeWidth=2;" parent="1" source="UZ9Ux37qHeOWCQ1a2PDl-29" target="UZ9Ux37qHeOWCQ1a2PDl-32" edge="1">
          <mxGeometry relative="1" as="geometry" />
        </mxCell>
        <mxCell id="UZ9Ux37qHeOWCQ1a2PDl-28" style="edgeStyle=orthogonalEdgeStyle;rounded=0;orthogonalLoop=1;jettySize=auto;html=1;entryX=0;entryY=0.5;entryDx=0;entryDy=0;curved=1;strokeColor=#00FF00;strokeWidth=2;" parent="1" source="UZ9Ux37qHeOWCQ1a2PDl-29" target="UZ9Ux37qHeOWCQ1a2PDl-30" edge="1">
          <mxGeometry relative="1" as="geometry" />
        </mxCell>
        <mxCell id="UZ9Ux37qHeOWCQ1a2PDl-29" value="Hello" style="ellipse;whiteSpace=wrap;html=1;aspect=fixed;strokeColor=#00FF00;strokeWidth=2;" parent="1" vertex="1">
          <mxGeometry x="120" y="760" width="40" height="40" as="geometry" />
        </mxCell>
        <mxCell id="UZ9Ux37qHeOWCQ1a2PDl-30" value="World" style="ellipse;whiteSpace=wrap;html=1;aspect=fixed;strokeColor=#FF0000;strokeWidth=2;" parent="1" vertex="1">
          <mxGeometry x="240" y="840" width="40" height="40" as="geometry" />
        </mxCell>
        <mxCell id="UZ9Ux37qHeOWCQ1a2PDl-31" style="edgeStyle=orthogonalEdgeStyle;rounded=0;orthogonalLoop=1;jettySize=auto;html=1;strokeColor=#FF0000;strokeWidth=2;" parent="1" source="UZ9Ux37qHeOWCQ1a2PDl-32" target="UZ9Ux37qHeOWCQ1a2PDl-38" edge="1">
          <mxGeometry relative="1" as="geometry" />
        </mxCell>
        <mxCell id="UZ9Ux37qHeOWCQ1a2PDl-32" value="_" style="ellipse;whiteSpace=wrap;html=1;aspect=fixed;strokeColor=#FF0000;strokeWidth=2;" parent="1" vertex="1">
          <mxGeometry x="240" y="760" width="40" height="40" as="geometry" />
        </mxCell>
        <mxCell id="UZ9Ux37qHeOWCQ1a2PDl-33" style="edgeStyle=orthogonalEdgeStyle;rounded=0;orthogonalLoop=1;jettySize=auto;html=1;entryX=0;entryY=0.5;entryDx=0;entryDy=0;curved=1;strokeColor=#00FF00;strokeWidth=2;" parent="1" source="UZ9Ux37qHeOWCQ1a2PDl-35" target="UZ9Ux37qHeOWCQ1a2PDl-39" edge="1">
          <mxGeometry relative="1" as="geometry" />
        </mxCell>
        <mxCell id="UZ9Ux37qHeOWCQ1a2PDl-34" style="edgeStyle=orthogonalEdgeStyle;rounded=0;orthogonalLoop=1;jettySize=auto;html=1;entryX=0;entryY=0.5;entryDx=0;entryDy=0;strokeColor=#00FF00;strokeWidth=2;" parent="1" source="UZ9Ux37qHeOWCQ1a2PDl-35" target="UZ9Ux37qHeOWCQ1a2PDl-37" edge="1">
          <mxGeometry relative="1" as="geometry" />
        </mxCell>
        <mxCell id="UZ9Ux37qHeOWCQ1a2PDl-35" value="," style="ellipse;whiteSpace=wrap;html=1;aspect=fixed;strokeColor=#00FF00;strokeWidth=2;" parent="1" vertex="1">
          <mxGeometry x="240" y="680" width="40" height="40" as="geometry" />
        </mxCell>
        <mxCell id="UZ9Ux37qHeOWCQ1a2PDl-36" style="edgeStyle=orthogonalEdgeStyle;rounded=0;orthogonalLoop=1;jettySize=auto;html=1;strokeColor=#FF0000;strokeWidth=2;" parent="1" source="UZ9Ux37qHeOWCQ1a2PDl-37" target="UZ9Ux37qHeOWCQ1a2PDl-40" edge="1">
          <mxGeometry relative="1" as="geometry" />
        </mxCell>
        <mxCell id="UZ9Ux37qHeOWCQ1a2PDl-37" value="_" style="ellipse;whiteSpace=wrap;html=1;aspect=fixed;strokeColor=#FF0000;strokeWidth=2;" parent="1" vertex="1">
          <mxGeometry x="360" y="680" width="40" height="40" as="geometry" />
        </mxCell>
        <mxCell id="UZ9Ux37qHeOWCQ1a2PDl-38" value="World" style="ellipse;whiteSpace=wrap;html=1;aspect=fixed;strokeColor=#FF0000;strokeWidth=2;" parent="1" vertex="1">
          <mxGeometry x="360" y="760" width="40" height="40" as="geometry" />
        </mxCell>
        <mxCell id="UZ9Ux37qHeOWCQ1a2PDl-39" value="World" style="ellipse;whiteSpace=wrap;html=1;aspect=fixed;strokeColor=#FF0000;strokeWidth=2;" parent="1" vertex="1">
          <mxGeometry x="360" y="600" width="40" height="40" as="geometry" />
        </mxCell>
        <mxCell id="UZ9Ux37qHeOWCQ1a2PDl-40" value="World" style="ellipse;whiteSpace=wrap;html=1;aspect=fixed;strokeColor=#FF0000;strokeWidth=2;" parent="1" vertex="1">
          <mxGeometry x="480" y="680" width="40" height="40" as="geometry" />
        </mxCell>
        <mxCell id="UZ9Ux37qHeOWCQ1a2PDl-41" value="" style="endArrow=none;html=1;rounded=0;dashed=1;" parent="1" edge="1">
          <mxGeometry width="50" height="50" relative="1" as="geometry">
            <mxPoint y="490" as="sourcePoint" />
            <mxPoint x="680" y="490" as="targetPoint" />
          </mxGeometry>
        </mxCell>
        <mxCell id="pA2hpONsF-baMWNIkRtu-1" value="" style="verticalLabelPosition=bottom;verticalAlign=top;html=1;shape=mxgraph.basic.tick;fillColor=#00FF00;fontColor=#ffffff;strokeColor=#2D7600;" parent="1" vertex="1">
          <mxGeometry x="530" y="285" width="30" height="30" as="geometry" />
        </mxCell>
        <mxCell id="pA2hpONsF-baMWNIkRtu-2" value="" style="verticalLabelPosition=bottom;verticalAlign=top;html=1;shape=mxgraph.basic.x;strokeColor=#FF0000;fillColor=#a20025;fontColor=#ffffff;" parent="1" vertex="1">
          <mxGeometry x="530" y="685" width="30" height="30" as="geometry" />
        </mxCell>
        <mxCell id="pA2hpONsF-baMWNIkRtu-3" value="" style="verticalLabelPosition=bottom;verticalAlign=top;html=1;shape=mxgraph.basic.x;strokeColor=#FF0000;fillColor=#a20025;fontColor=#ffffff;" parent="1" vertex="1">
          <mxGeometry x="410" y="605" width="30" height="30" as="geometry" />
        </mxCell>
        <mxCell id="pA2hpONsF-baMWNIkRtu-4" value="" style="verticalLabelPosition=bottom;verticalAlign=top;html=1;shape=mxgraph.basic.x;strokeColor=#FF0000;fillColor=#a20025;fontColor=#ffffff;" parent="1" vertex="1">
          <mxGeometry x="410" y="765" width="30" height="30" as="geometry" />
        </mxCell>
        <mxCell id="pA2hpONsF-baMWNIkRtu-5" value="" style="verticalLabelPosition=bottom;verticalAlign=top;html=1;shape=mxgraph.basic.x;strokeColor=#FF0000;fillColor=#a20025;fontColor=#ffffff;" parent="1" vertex="1">
          <mxGeometry x="290" y="845" width="30" height="30" as="geometry" />
        </mxCell>
        <mxCell id="pA2hpONsF-baMWNIkRtu-6" value="" style="verticalLabelPosition=bottom;verticalAlign=top;html=1;shape=mxgraph.basic.x;strokeColor=#FF0000;fillColor=#a20025;fontColor=#ffffff;" parent="1" vertex="1">
          <mxGeometry x="290" y="445" width="30" height="30" as="geometry" />
        </mxCell>
        <mxCell id="pA2hpONsF-baMWNIkRtu-7" value="" style="verticalLabelPosition=bottom;verticalAlign=top;html=1;shape=mxgraph.basic.x;strokeColor=#FF0000;fillColor=#a20025;fontColor=#ffffff;" parent="1" vertex="1">
          <mxGeometry x="410" y="365" width="30" height="30" as="geometry" />
        </mxCell>
        <mxCell id="pA2hpONsF-baMWNIkRtu-8" value="" style="verticalLabelPosition=bottom;verticalAlign=top;html=1;shape=mxgraph.basic.x;strokeColor=#FF0000;fillColor=#a20025;fontColor=#ffffff;" parent="1" vertex="1">
          <mxGeometry x="410" y="205" width="30" height="30" as="geometry" />
        </mxCell>
      </root>
    </mxGraphModel>
  </diagram>
</mxfile>
